<svg width="275" height="29" viewBox="0 0 275 29" fill="none" xmlns="http://www.w3.org/2000/svg">
<g filter="url(#filter0_d)">
<g filter="url(#filter1_dd)">
<line x1="4" y1="12.5" x2="14" y2="12.5" stroke="white" stroke-opacity="0.75"/>
</g>
<g filter="url(#filter2_dd)">
<line x1="124" y1="12.5" x2="134" y2="12.5" stroke="white" stroke-opacity="0.75"/>
</g>
<g filter="url(#filter3_dd)">
<line x1="19" y1="12.5" x2="29" y2="12.5" stroke="white" stroke-opacity="0.75"/>
</g>
<g filter="url(#filter4_dd)">
<line x1="139" y1="12.5" x2="149" y2="12.5" stroke="white" stroke-opacity="0.75"/>
</g>
<g filter="url(#filter5_dd)">
<line x1="34" y1="12.5" x2="44" y2="12.5" stroke="white" stroke-opacity="0.75"/>
</g>
<g filter="url(#filter6_dd)">
<line x1="154" y1="12.5" x2="164" y2="12.5" stroke="white" stroke-opacity="0.75"/>
</g>
<g filter="url(#filter7_dd)">
<line x1="49" y1="12.5" x2="59" y2="12.5" stroke="white" stroke-opacity="0.75"/>
</g>
<g filter="url(#filter8_dd)">
<line x1="169" y1="12.5" x2="179" y2="12.5" stroke="white" stroke-opacity="0.75"/>
</g>
<g filter="url(#filter9_dd)">
<line x1="64" y1="12.5" x2="74" y2="12.5" stroke="white" stroke-opacity="0.75"/>
</g>
<g filter="url(#filter10_dd)">
<line x1="184" y1="12.5" x2="194" y2="12.5" stroke="white" stroke-opacity="0.75"/>
</g>
<g filter="url(#filter11_dd)">
<line x1="214" y1="12.5" x2="224" y2="12.5" stroke="white" stroke-opacity="0.75"/>
</g>
<g filter="url(#filter12_dd)">
<line x1="79" y1="12.5" x2="89" y2="12.5" stroke="white" stroke-opacity="0.75"/>
</g>
<g filter="url(#filter13_dd)">
<line x1="199" y1="12.5" x2="209" y2="12.5" stroke="white" stroke-opacity="0.75"/>
</g>
<g filter="url(#filter14_dd)">
<line x1="229" y1="12.5" x2="239" y2="12.5" stroke="white" stroke-opacity="0.75"/>
</g>
<g filter="url(#filter15_dd)">
<line x1="94" y1="12.5" x2="104" y2="12.5" stroke="white" stroke-opacity="0.75"/>
</g>
<g filter="url(#filter16_dd)">
<line x1="109" y1="12.5" x2="119" y2="12.5" stroke="white" stroke-opacity="0.75"/>
</g>
<g filter="url(#filter17_d)">
<path d="M255.478 9.4497C255.265 9.4497 255.058 9.51128 254.881 9.62665C254.704 9.74202 254.567 9.906 254.485 10.0979C254.404 10.2897 254.383 10.5008 254.424 10.7045C254.466 10.9082 254.568 11.0952 254.718 11.2421C254.868 11.3889 255.06 11.4889 255.268 11.5294C255.477 11.57 255.693 11.5492 255.889 11.4697C256.086 11.3902 256.253 11.2556 256.372 11.083C256.49 10.9103 256.553 10.7073 256.553 10.4997C256.553 10.2212 256.439 9.95413 256.238 9.75723C256.036 9.56032 255.763 9.4497 255.478 9.4497ZM259.776 9.4497C259.564 9.4497 259.356 9.51128 259.179 9.62665C259.003 9.74202 258.865 9.906 258.784 10.0979C258.702 10.2897 258.681 10.5008 258.723 10.7045C258.764 10.9082 258.866 11.0952 259.017 11.2421C259.167 11.3889 259.358 11.4889 259.567 11.5294C259.775 11.57 259.991 11.5492 260.188 11.4697C260.384 11.3902 260.552 11.2556 260.67 11.083C260.788 10.9103 260.851 10.7073 260.851 10.4997C260.851 10.2212 260.738 9.95413 260.536 9.75723C260.335 9.56032 260.062 9.4497 259.776 9.4497ZM264.075 9.4497C263.862 9.4497 263.655 9.51128 263.478 9.62665C263.301 9.74202 263.163 9.906 263.082 10.0979C263.001 10.2897 262.98 10.5008 263.021 10.7045C263.062 10.9082 263.165 11.0952 263.315 11.2421C263.465 11.3889 263.657 11.4889 263.865 11.5294C264.074 11.57 264.29 11.5492 264.486 11.4697C264.683 11.3902 264.85 11.2556 264.968 11.083C265.087 10.9103 265.15 10.7073 265.15 10.4997C265.15 10.2212 265.036 9.95413 264.835 9.75723C264.633 9.56032 264.36 9.4497 264.075 9.4497ZM259.776 0.00012207C258.365 0.00012207 256.968 0.271701 255.664 0.799352C254.36 1.327 253.176 2.10039 252.178 3.07536C250.162 5.04441 249.03 7.71501 249.03 10.4997C249.021 12.9241 249.88 15.2754 251.459 17.1459L249.31 19.2458C249.161 19.3934 249.06 19.5809 249.019 19.7846C248.979 19.9883 249.002 20.199 249.084 20.3902C249.173 20.5791 249.318 20.7379 249.5 20.8463C249.681 20.9547 249.892 21.0079 250.105 20.9992H259.776C262.627 20.9992 265.36 19.893 267.375 17.924C269.391 15.9549 270.523 13.2843 270.523 10.4997C270.523 7.71501 269.391 5.04441 267.375 3.07536C265.36 1.10632 262.627 0.00012207 259.776 0.00012207ZM259.776 18.8993H252.695L253.694 17.9228C253.796 17.8256 253.876 17.7096 253.932 17.5817C253.987 17.4537 254.016 17.3163 254.017 17.1774C254.012 16.9004 253.897 16.6362 253.694 16.4424C252.287 15.0691 251.411 13.2616 251.215 11.3279C251.019 9.39411 251.515 7.45375 252.619 5.83736C253.723 4.22098 255.366 3.02856 257.269 2.46328C259.172 1.89801 261.216 1.99483 263.054 2.73726C264.892 3.47969 266.41 4.8218 267.349 6.53492C268.288 8.24804 268.589 10.2262 268.203 12.1323C267.816 14.0385 266.765 15.7547 265.229 16.9886C263.692 18.2225 261.765 18.8978 259.776 18.8993Z" fill="white"/>
<path d="M249.53 10.5016V10.4997C249.53 7.85141 250.607 5.30922 252.527 3.433C253.478 2.50389 254.608 1.76628 255.852 1.26283C257.096 0.759384 258.429 0.500122 259.776 0.500122C262.498 0.500122 265.105 1.5564 267.026 3.433C268.946 5.30922 270.023 7.85141 270.023 10.4997C270.023 13.1479 268.946 15.6901 267.026 17.5663C265.105 19.4429 262.498 20.4992 259.776 20.4992H250.105H250.095L250.084 20.4996C249.968 20.5044 249.854 20.4752 249.756 20.4169C249.661 20.3602 249.586 20.279 249.54 20.1845C249.5 20.0879 249.49 19.9828 249.51 19.8813C249.53 19.7773 249.582 19.6799 249.661 19.602C249.661 19.6017 249.661 19.6014 249.661 19.6011L251.808 17.5035L252.141 17.1786L251.841 16.8234C250.338 15.0427 249.521 12.8061 249.53 10.5016ZM259.776 19.3993H259.777C261.878 19.3977 263.916 18.6843 265.542 17.3785C267.168 16.0725 268.283 14.254 268.693 12.2317C269.103 10.2093 268.782 8.11084 267.787 6.29464C266.792 4.4787 265.185 3.05861 263.242 2.27365C261.299 1.48877 259.138 1.38653 257.127 1.98399C255.115 2.58149 253.376 3.84263 252.206 5.55537C251.036 7.26838 250.509 9.32633 250.717 11.3783C250.925 13.4302 251.855 15.3461 253.345 16.8002L253.348 16.8036C253.454 16.905 253.513 17.0403 253.516 17.1799C253.516 17.2495 253.501 17.3185 253.473 17.3832L253.932 17.5817L253.473 17.3832C253.444 17.4494 253.402 17.5102 253.348 17.5617L253.348 17.5617L253.345 17.5652L252.345 18.5417L251.468 19.3993H252.695H259.776ZM255.154 10.0453C255.249 9.98342 255.362 9.9497 255.478 9.9497C255.634 9.9497 255.782 10.0104 255.888 10.1149C255.995 10.2189 256.053 10.3576 256.053 10.4997C256.053 10.6058 256.02 10.7106 255.959 10.8007C255.897 10.891 255.808 10.9632 255.702 11.0062C255.595 11.0493 255.477 11.0607 255.364 11.0386C255.25 11.0165 255.147 10.9623 255.068 10.8845C254.988 10.8068 254.935 10.7092 254.914 10.6047C254.893 10.5004 254.904 10.3921 254.946 10.293C254.988 10.1938 255.06 10.1072 255.154 10.0453L254.881 9.62665L255.154 10.0453ZM259.453 10.0453C259.548 9.98342 259.66 9.9497 259.776 9.9497C259.933 9.9497 260.08 10.0104 260.187 10.1149C260.293 10.2189 260.351 10.3576 260.351 10.4997C260.351 10.6058 260.319 10.7106 260.257 10.8007C260.196 10.891 260.107 10.9632 260 11.0062C259.894 11.0493 259.776 11.0607 259.662 11.0386C259.549 11.0165 259.446 10.9623 259.366 10.8845C259.287 10.8068 259.234 10.7092 259.212 10.6047C259.191 10.5004 259.202 10.3921 259.244 10.293C259.286 10.1938 259.358 10.1072 259.453 10.0453L259.179 9.62665L259.453 10.0453ZM263.751 10.0453C263.846 9.98342 263.959 9.9497 264.075 9.9497C264.231 9.9497 264.379 10.0104 264.485 10.1149C264.592 10.2189 264.65 10.3576 264.65 10.4997C264.65 10.6058 264.617 10.7106 264.556 10.8007C264.494 10.891 264.405 10.9632 264.299 11.0062C264.192 11.0493 264.074 11.0607 263.961 11.0386C263.847 11.0165 263.744 10.9623 263.665 10.8845C263.585 10.8068 263.532 10.7092 263.511 10.6047C263.49 10.5004 263.501 10.3921 263.542 10.293C263.585 10.1938 263.657 10.1072 263.751 10.0453L263.478 9.62665L263.751 10.0453Z" stroke="black"/>
</g>
</g>
<defs>
<filter id="filter0_d" x="0" y="0.00012207" width="274.523" height="29" filterUnits="userSpaceOnUse" color-interpolation-filters="sRGB">
<feFlood flood-opacity="0" result="BackgroundImageFix"/>
<feColorMatrix in="SourceAlpha" type="matrix" values="0 0 0 0 0 0 0 0 0 0 0 0 0 0 0 0 0 0 127 0"/>
<feOffset dy="4"/>
<feGaussianBlur stdDeviation="2"/>
<feColorMatrix type="matrix" values="0 0 0 0 0 0 0 0 0 0 0 0 0 0 0 0 0 0 0.25 0"/>
<feBlend mode="normal" in2="BackgroundImageFix" result="effect1_dropShadow"/>
<feBlend mode="normal" in="SourceGraphic" in2="effect1_dropShadow" result="shape"/>
</filter>
<filter id="filter1_dd" x="0" y="12" width="18" height="9" filterUnits="userSpaceOnUse" color-interpolation-filters="sRGB">
<feFlood flood-opacity="0" result="BackgroundImageFix"/>
<feColorMatrix in="SourceAlpha" type="matrix" values="0 0 0 0 0 0 0 0 0 0 0 0 0 0 0 0 0 0 127 0"/>
<feOffset dy="4"/>
<feGaussianBlur stdDeviation="2"/>
<feColorMatrix type="matrix" values="0 0 0 0 0 0 0 0 0 0 0 0 0 0 0 0 0 0 0.25 0"/>
<feBlend mode="normal" in2="BackgroundImageFix" result="effect1_dropShadow"/>
<feColorMatrix in="SourceAlpha" type="matrix" values="0 0 0 0 0 0 0 0 0 0 0 0 0 0 0 0 0 0 127 0"/>
<feOffset dy="4"/>
<feGaussianBlur stdDeviation="2"/>
<feColorMatrix type="matrix" values="0 0 0 0 0 0 0 0 0 0 0 0 0 0 0 0 0 0 0.25 0"/>
<feBlend mode="normal" in2="effect1_dropShadow" result="effect2_dropShadow"/>
<feBlend mode="normal" in="SourceGraphic" in2="effect2_dropShadow" result="shape"/>
</filter>
<filter id="filter2_dd" x="120" y="12" width="18" height="9" filterUnits="userSpaceOnUse" color-interpolation-filters="sRGB">
<feFlood flood-opacity="0" result="BackgroundImageFix"/>
<feColorMatrix in="SourceAlpha" type="matrix" values="0 0 0 0 0 0 0 0 0 0 0 0 0 0 0 0 0 0 127 0"/>
<feOffset dy="4"/>
<feGaussianBlur stdDeviation="2"/>
<feColorMatrix type="matrix" values="0 0 0 0 0 0 0 0 0 0 0 0 0 0 0 0 0 0 0.25 0"/>
<feBlend mode="normal" in2="BackgroundImageFix" result="effect1_dropShadow"/>
<feColorMatrix in="SourceAlpha" type="matrix" values="0 0 0 0 0 0 0 0 0 0 0 0 0 0 0 0 0 0 127 0"/>
<feOffset dy="4"/>
<feGaussianBlur stdDeviation="2"/>
<feColorMatrix type="matrix" values="0 0 0 0 0 0 0 0 0 0 0 0 0 0 0 0 0 0 0.25 0"/>
<feBlend mode="normal" in2="effect1_dropShadow" result="effect2_dropShadow"/>
<feBlend mode="normal" in="SourceGraphic" in2="effect2_dropShadow" result="shape"/>
</filter>
<filter id="filter3_dd" x="15" y="12" width="18" height="9" filterUnits="userSpaceOnUse" color-interpolation-filters="sRGB">
<feFlood flood-opacity="0" result="BackgroundImageFix"/>
<feColorMatrix in="SourceAlpha" type="matrix" values="0 0 0 0 0 0 0 0 0 0 0 0 0 0 0 0 0 0 127 0"/>
<feOffset dy="4"/>
<feGaussianBlur stdDeviation="2"/>
<feColorMatrix type="matrix" values="0 0 0 0 0 0 0 0 0 0 0 0 0 0 0 0 0 0 0.25 0"/>
<feBlend mode="normal" in2="BackgroundImageFix" result="effect1_dropShadow"/>
<feColorMatrix in="SourceAlpha" type="matrix" values="0 0 0 0 0 0 0 0 0 0 0 0 0 0 0 0 0 0 127 0"/>
<feOffset dy="4"/>
<feGaussianBlur stdDeviation="2"/>
<feColorMatrix type="matrix" values="0 0 0 0 0 0 0 0 0 0 0 0 0 0 0 0 0 0 0.25 0"/>
<feBlend mode="normal" in2="effect1_dropShadow" result="effect2_dropShadow"/>
<feBlend mode="normal" in="SourceGraphic" in2="effect2_dropShadow" result="shape"/>
</filter>
<filter id="filter4_dd" x="135" y="12" width="18" height="9" filterUnits="userSpaceOnUse" color-interpolation-filters="sRGB">
<feFlood flood-opacity="0" result="BackgroundImageFix"/>
<feColorMatrix in="SourceAlpha" type="matrix" values="0 0 0 0 0 0 0 0 0 0 0 0 0 0 0 0 0 0 127 0"/>
<feOffset dy="4"/>
<feGaussianBlur stdDeviation="2"/>
<feColorMatrix type="matrix" values="0 0 0 0 0 0 0 0 0 0 0 0 0 0 0 0 0 0 0.25 0"/>
<feBlend mode="normal" in2="BackgroundImageFix" result="effect1_dropShadow"/>
<feColorMatrix in="SourceAlpha" type="matrix" values="0 0 0 0 0 0 0 0 0 0 0 0 0 0 0 0 0 0 127 0"/>
<feOffset dy="4"/>
<feGaussianBlur stdDeviation="2"/>
<feColorMatrix type="matrix" values="0 0 0 0 0 0 0 0 0 0 0 0 0 0 0 0 0 0 0.25 0"/>
<feBlend mode="normal" in2="effect1_dropShadow" result="effect2_dropShadow"/>
<feBlend mode="normal" in="SourceGraphic" in2="effect2_dropShadow" result="shape"/>
</filter>
<filter id="filter5_dd" x="30" y="12" width="18" height="9" filterUnits="userSpaceOnUse" color-interpolation-filters="sRGB">
<feFlood flood-opacity="0" result="BackgroundImageFix"/>
<feColorMatrix in="SourceAlpha" type="matrix" values="0 0 0 0 0 0 0 0 0 0 0 0 0 0 0 0 0 0 127 0"/>
<feOffset dy="4"/>
<feGaussianBlur stdDeviation="2"/>
<feColorMatrix type="matrix" values="0 0 0 0 0 0 0 0 0 0 0 0 0 0 0 0 0 0 0.25 0"/>
<feBlend mode="normal" in2="BackgroundImageFix" result="effect1_dropShadow"/>
<feColorMatrix in="SourceAlpha" type="matrix" values="0 0 0 0 0 0 0 0 0 0 0 0 0 0 0 0 0 0 127 0"/>
<feOffset dy="4"/>
<feGaussianBlur stdDeviation="2"/>
<feColorMatrix type="matrix" values="0 0 0 0 0 0 0 0 0 0 0 0 0 0 0 0 0 0 0.25 0"/>
<feBlend mode="normal" in2="effect1_dropShadow" result="effect2_dropShadow"/>
<feBlend mode="normal" in="SourceGraphic" in2="effect2_dropShadow" result="shape"/>
</filter>
<filter id="filter6_dd" x="150" y="12" width="18" height="9" filterUnits="userSpaceOnUse" color-interpolation-filters="sRGB">
<feFlood flood-opacity="0" result="BackgroundImageFix"/>
<feColorMatrix in="SourceAlpha" type="matrix" values="0 0 0 0 0 0 0 0 0 0 0 0 0 0 0 0 0 0 127 0"/>
<feOffset dy="4"/>
<feGaussianBlur stdDeviation="2"/>
<feColorMatrix type="matrix" values="0 0 0 0 0 0 0 0 0 0 0 0 0 0 0 0 0 0 0.25 0"/>
<feBlend mode="normal" in2="BackgroundImageFix" result="effect1_dropShadow"/>
<feColorMatrix in="SourceAlpha" type="matrix" values="0 0 0 0 0 0 0 0 0 0 0 0 0 0 0 0 0 0 127 0"/>
<feOffset dy="4"/>
<feGaussianBlur stdDeviation="2"/>
<feColorMatrix type="matrix" values="0 0 0 0 0 0 0 0 0 0 0 0 0 0 0 0 0 0 0.25 0"/>
<feBlend mode="normal" in2="effect1_dropShadow" result="effect2_dropShadow"/>
<feBlend mode="normal" in="SourceGraphic" in2="effect2_dropShadow" result="shape"/>
</filter>
<filter id="filter7_dd" x="45" y="12" width="18" height="9" filterUnits="userSpaceOnUse" color-interpolation-filters="sRGB">
<feFlood flood-opacity="0" result="BackgroundImageFix"/>
<feColorMatrix in="SourceAlpha" type="matrix" values="0 0 0 0 0 0 0 0 0 0 0 0 0 0 0 0 0 0 127 0"/>
<feOffset dy="4"/>
<feGaussianBlur stdDeviation="2"/>
<feColorMatrix type="matrix" values="0 0 0 0 0 0 0 0 0 0 0 0 0 0 0 0 0 0 0.25 0"/>
<feBlend mode="normal" in2="BackgroundImageFix" result="effect1_dropShadow"/>
<feColorMatrix in="SourceAlpha" type="matrix" values="0 0 0 0 0 0 0 0 0 0 0 0 0 0 0 0 0 0 127 0"/>
<feOffset dy="4"/>
<feGaussianBlur stdDeviation="2"/>
<feColorMatrix type="matrix" values="0 0 0 0 0 0 0 0 0 0 0 0 0 0 0 0 0 0 0.25 0"/>
<feBlend mode="normal" in2="effect1_dropShadow" result="effect2_dropShadow"/>
<feBlend mode="normal" in="SourceGraphic" in2="effect2_dropShadow" result="shape"/>
</filter>
<filter id="filter8_dd" x="165" y="12" width="18" height="9" filterUnits="userSpaceOnUse" color-interpolation-filters="sRGB">
<feFlood flood-opacity="0" result="BackgroundImageFix"/>
<feColorMatrix in="SourceAlpha" type="matrix" values="0 0 0 0 0 0 0 0 0 0 0 0 0 0 0 0 0 0 127 0"/>
<feOffset dy="4"/>
<feGaussianBlur stdDeviation="2"/>
<feColorMatrix type="matrix" values="0 0 0 0 0 0 0 0 0 0 0 0 0 0 0 0 0 0 0.25 0"/>
<feBlend mode="normal" in2="BackgroundImageFix" result="effect1_dropShadow"/>
<feColorMatrix in="SourceAlpha" type="matrix" values="0 0 0 0 0 0 0 0 0 0 0 0 0 0 0 0 0 0 127 0"/>
<feOffset dy="4"/>
<feGaussianBlur stdDeviation="2"/>
<feColorMatrix type="matrix" values="0 0 0 0 0 0 0 0 0 0 0 0 0 0 0 0 0 0 0.25 0"/>
<feBlend mode="normal" in2="effect1_dropShadow" result="effect2_dropShadow"/>
<feBlend mode="normal" in="SourceGraphic" in2="effect2_dropShadow" result="shape"/>
</filter>
<filter id="filter9_dd" x="60" y="12" width="18" height="9" filterUnits="userSpaceOnUse" color-interpolation-filters="sRGB">
<feFlood flood-opacity="0" result="BackgroundImageFix"/>
<feColorMatrix in="SourceAlpha" type="matrix" values="0 0 0 0 0 0 0 0 0 0 0 0 0 0 0 0 0 0 127 0"/>
<feOffset dy="4"/>
<feGaussianBlur stdDeviation="2"/>
<feColorMatrix type="matrix" values="0 0 0 0 0 0 0 0 0 0 0 0 0 0 0 0 0 0 0.25 0"/>
<feBlend mode="normal" in2="BackgroundImageFix" result="effect1_dropShadow"/>
<feColorMatrix in="SourceAlpha" type="matrix" values="0 0 0 0 0 0 0 0 0 0 0 0 0 0 0 0 0 0 127 0"/>
<feOffset dy="4"/>
<feGaussianBlur stdDeviation="2"/>
<feColorMatrix type="matrix" values="0 0 0 0 0 0 0 0 0 0 0 0 0 0 0 0 0 0 0.25 0"/>
<feBlend mode="normal" in2="effect1_dropShadow" result="effect2_dropShadow"/>
<feBlend mode="normal" in="SourceGraphic" in2="effect2_dropShadow" result="shape"/>
</filter>
<filter id="filter10_dd" x="180" y="12" width="18" height="9" filterUnits="userSpaceOnUse" color-interpolation-filters="sRGB">
<feFlood flood-opacity="0" result="BackgroundImageFix"/>
<feColorMatrix in="SourceAlpha" type="matrix" values="0 0 0 0 0 0 0 0 0 0 0 0 0 0 0 0 0 0 127 0"/>
<feOffset dy="4"/>
<feGaussianBlur stdDeviation="2"/>
<feColorMatrix type="matrix" values="0 0 0 0 0 0 0 0 0 0 0 0 0 0 0 0 0 0 0.25 0"/>
<feBlend mode="normal" in2="BackgroundImageFix" result="effect1_dropShadow"/>
<feColorMatrix in="SourceAlpha" type="matrix" values="0 0 0 0 0 0 0 0 0 0 0 0 0 0 0 0 0 0 127 0"/>
<feOffset dy="4"/>
<feGaussianBlur stdDeviation="2"/>
<feColorMatrix type="matrix" values="0 0 0 0 0 0 0 0 0 0 0 0 0 0 0 0 0 0 0.25 0"/>
<feBlend mode="normal" in2="effect1_dropShadow" result="effect2_dropShadow"/>
<feBlend mode="normal" in="SourceGraphic" in2="effect2_dropShadow" result="shape"/>
</filter>
<filter id="filter11_dd" x="210" y="12" width="18" height="9" filterUnits="userSpaceOnUse" color-interpolation-filters="sRGB">
<feFlood flood-opacity="0" result="BackgroundImageFix"/>
<feColorMatrix in="SourceAlpha" type="matrix" values="0 0 0 0 0 0 0 0 0 0 0 0 0 0 0 0 0 0 127 0"/>
<feOffset dy="4"/>
<feGaussianBlur stdDeviation="2"/>
<feColorMatrix type="matrix" values="0 0 0 0 0 0 0 0 0 0 0 0 0 0 0 0 0 0 0.25 0"/>
<feBlend mode="normal" in2="BackgroundImageFix" result="effect1_dropShadow"/>
<feColorMatrix in="SourceAlpha" type="matrix" values="0 0 0 0 0 0 0 0 0 0 0 0 0 0 0 0 0 0 127 0"/>
<feOffset dy="4"/>
<feGaussianBlur stdDeviation="2"/>
<feColorMatrix type="matrix" values="0 0 0 0 0 0 0 0 0 0 0 0 0 0 0 0 0 0 0.25 0"/>
<feBlend mode="normal" in2="effect1_dropShadow" result="effect2_dropShadow"/>
<feBlend mode="normal" in="SourceGraphic" in2="effect2_dropShadow" result="shape"/>
</filter>
<filter id="filter12_dd" x="75" y="12" width="18" height="9" filterUnits="userSpaceOnUse" color-interpolation-filters="sRGB">
<feFlood flood-opacity="0" result="BackgroundImageFix"/>
<feColorMatrix in="SourceAlpha" type="matrix" values="0 0 0 0 0 0 0 0 0 0 0 0 0 0 0 0 0 0 127 0"/>
<feOffset dy="4"/>
<feGaussianBlur stdDeviation="2"/>
<feColorMatrix type="matrix" values="0 0 0 0 0 0 0 0 0 0 0 0 0 0 0 0 0 0 0.25 0"/>
<feBlend mode="normal" in2="BackgroundImageFix" result="effect1_dropShadow"/>
<feColorMatrix in="SourceAlpha" type="matrix" values="0 0 0 0 0 0 0 0 0 0 0 0 0 0 0 0 0 0 127 0"/>
<feOffset dy="4"/>
<feGaussianBlur stdDeviation="2"/>
<feColorMatrix type="matrix" values="0 0 0 0 0 0 0 0 0 0 0 0 0 0 0 0 0 0 0.25 0"/>
<feBlend mode="normal" in2="effect1_dropShadow" result="effect2_dropShadow"/>
<feBlend mode="normal" in="SourceGraphic" in2="effect2_dropShadow" result="shape"/>
</filter>
<filter id="filter13_dd" x="195" y="12" width="18" height="9" filterUnits="userSpaceOnUse" color-interpolation-filters="sRGB">
<feFlood flood-opacity="0" result="BackgroundImageFix"/>
<feColorMatrix in="SourceAlpha" type="matrix" values="0 0 0 0 0 0 0 0 0 0 0 0 0 0 0 0 0 0 127 0"/>
<feOffset dy="4"/>
<feGaussianBlur stdDeviation="2"/>
<feColorMatrix type="matrix" values="0 0 0 0 0 0 0 0 0 0 0 0 0 0 0 0 0 0 0.25 0"/>
<feBlend mode="normal" in2="BackgroundImageFix" result="effect1_dropShadow"/>
<feColorMatrix in="SourceAlpha" type="matrix" values="0 0 0 0 0 0 0 0 0 0 0 0 0 0 0 0 0 0 127 0"/>
<feOffset dy="4"/>
<feGaussianBlur stdDeviation="2"/>
<feColorMatrix type="matrix" values="0 0 0 0 0 0 0 0 0 0 0 0 0 0 0 0 0 0 0.25 0"/>
<feBlend mode="normal" in2="effect1_dropShadow" result="effect2_dropShadow"/>
<feBlend mode="normal" in="SourceGraphic" in2="effect2_dropShadow" result="shape"/>
</filter>
<filter id="filter14_dd" x="225" y="12" width="18" height="9" filterUnits="userSpaceOnUse" color-interpolation-filters="sRGB">
<feFlood flood-opacity="0" result="BackgroundImageFix"/>
<feColorMatrix in="SourceAlpha" type="matrix" values="0 0 0 0 0 0 0 0 0 0 0 0 0 0 0 0 0 0 127 0"/>
<feOffset dy="4"/>
<feGaussianBlur stdDeviation="2"/>
<feColorMatrix type="matrix" values="0 0 0 0 0 0 0 0 0 0 0 0 0 0 0 0 0 0 0.25 0"/>
<feBlend mode="normal" in2="BackgroundImageFix" result="effect1_dropShadow"/>
<feColorMatrix in="SourceAlpha" type="matrix" values="0 0 0 0 0 0 0 0 0 0 0 0 0 0 0 0 0 0 127 0"/>
<feOffset dy="4"/>
<feGaussianBlur stdDeviation="2"/>
<feColorMatrix type="matrix" values="0 0 0 0 0 0 0 0 0 0 0 0 0 0 0 0 0 0 0.25 0"/>
<feBlend mode="normal" in2="effect1_dropShadow" result="effect2_dropShadow"/>
<feBlend mode="normal" in="SourceGraphic" in2="effect2_dropShadow" result="shape"/>
</filter>
<filter id="filter15_dd" x="90" y="12" width="18" height="9" filterUnits="userSpaceOnUse" color-interpolation-filters="sRGB">
<feFlood flood-opacity="0" result="BackgroundImageFix"/>
<feColorMatrix in="SourceAlpha" type="matrix" values="0 0 0 0 0 0 0 0 0 0 0 0 0 0 0 0 0 0 127 0"/>
<feOffset dy="4"/>
<feGaussianBlur stdDeviation="2"/>
<feColorMatrix type="matrix" values="0 0 0 0 0 0 0 0 0 0 0 0 0 0 0 0 0 0 0.25 0"/>
<feBlend mode="normal" in2="BackgroundImageFix" result="effect1_dropShadow"/>
<feColorMatrix in="SourceAlpha" type="matrix" values="0 0 0 0 0 0 0 0 0 0 0 0 0 0 0 0 0 0 127 0"/>
<feOffset dy="4"/>
<feGaussianBlur stdDeviation="2"/>
<feColorMatrix type="matrix" values="0 0 0 0 0 0 0 0 0 0 0 0 0 0 0 0 0 0 0.25 0"/>
<feBlend mode="normal" in2="effect1_dropShadow" result="effect2_dropShadow"/>
<feBlend mode="normal" in="SourceGraphic" in2="effect2_dropShadow" result="shape"/>
</filter>
<filter id="filter16_dd" x="105" y="12" width="18" height="9" filterUnits="userSpaceOnUse" color-interpolation-filters="sRGB">
<feFlood flood-opacity="0" result="BackgroundImageFix"/>
<feColorMatrix in="SourceAlpha" type="matrix" values="0 0 0 0 0 0 0 0 0 0 0 0 0 0 0 0 0 0 127 0"/>
<feOffset dy="4"/>
<feGaussianBlur stdDeviation="2"/>
<feColorMatrix type="matrix" values="0 0 0 0 0 0 0 0 0 0 0 0 0 0 0 0 0 0 0.25 0"/>
<feBlend mode="normal" in2="BackgroundImageFix" result="effect1_dropShadow"/>
<feColorMatrix in="SourceAlpha" type="matrix" values="0 0 0 0 0 0 0 0 0 0 0 0 0 0 0 0 0 0 127 0"/>
<feOffset dy="4"/>
<feGaussianBlur stdDeviation="2"/>
<feColorMatrix type="matrix" values="0 0 0 0 0 0 0 0 0 0 0 0 0 0 0 0 0 0 0.25 0"/>
<feBlend mode="normal" in2="effect1_dropShadow" result="effect2_dropShadow"/>
<feBlend mode="normal" in="SourceGraphic" in2="effect2_dropShadow" result="shape"/>
</filter>
<filter id="filter17_d" x="245" y="0.00012207" width="29.5227" height="29" filterUnits="userSpaceOnUse" color-interpolation-filters="sRGB">
<feFlood flood-opacity="0" result="BackgroundImageFix"/>
<feColorMatrix in="SourceAlpha" type="matrix" values="0 0 0 0 0 0 0 0 0 0 0 0 0 0 0 0 0 0 127 0"/>
<feOffset dy="4"/>
<feGaussianBlur stdDeviation="2"/>
<feColorMatrix type="matrix" values="0 0 0 0 0 0 0 0 0 0 0 0 0 0 0 0 0 0 0.25 0"/>
<feBlend mode="normal" in2="BackgroundImageFix" result="effect1_dropShadow"/>
<feBlend mode="normal" in="SourceGraphic" in2="effect1_dropShadow" result="shape"/>
</filter>
</defs>
</svg>
