<svg width="410" height="56" viewBox="0 0 410 56" fill="none" xmlns="http://www.w3.org/2000/svg">
<rect width="409.956" height="56" fill="white"/>
<path d="M376.533 19C370.161 19 364.978 23.9347 364.978 30.0001C364.978 36.0656 370.161 41.0002 376.533 41.0002C382.904 41.0002 388.087 36.0656 388.087 30.0001C388.087 23.9347 382.904 19 376.533 19ZM376.533 38.8002C371.436 38.8002 367.289 34.8523 367.289 30.0001C367.289 25.148 371.436 21.2 376.533 21.2C381.629 21.2 385.776 25.148 385.776 30.0001C385.776 34.8523 381.629 38.8002 376.533 38.8002Z" fill="black"/>
<path d="M379.8 33.1112C379.162 33.7199 378.351 34.1369 377.466 34.3102C376.85 34.4279 376.215 34.4279 375.599 34.3102C375.303 34.2516 375.013 34.1661 374.733 34.055C374.459 33.9435 374.197 33.808 373.949 33.6502C373.458 33.3313 373.034 32.9276 372.699 32.46L370.783 33.6887C371.031 34.0396 371.317 34.3696 371.63 34.6666C372.273 35.2807 373.037 35.768 373.878 36.1006C374.719 36.4332 375.621 36.6045 376.531 36.6047C377.442 36.6049 378.344 36.434 379.185 36.1018C380.027 35.7696 380.791 35.2826 381.434 34.6688C381.748 34.3707 382.035 34.0407 382.282 33.6887L380.366 32.46C380.201 32.6921 380.012 32.911 379.8 33.1112Z" fill="black"/>
<path d="M372.488 30.0001C373.446 30.0001 374.222 29.2614 374.222 28.35C374.222 27.4387 373.446 26.7 372.488 26.7C371.531 26.7 370.755 27.4387 370.755 28.35C370.755 29.2614 371.531 30.0001 372.488 30.0001Z" fill="black"/>
<path d="M380.577 27.8005C378.266 27.8005 377.688 30.0002 377.688 30.0002H383.465C383.465 30.0002 382.886 27.8005 380.577 27.8005Z" fill="black"/>
</svg>
